<svg width="212" height="150" viewBox="0 0 212 150" fill="none" xmlns="http://www.w3.org/2000/svg">
<rect width="212" height="150" fill="#36CEB3"/>
<path d="M22.418 13.4648H27.6914V14.1094C27.1211 14.3672 26.6172 14.8008 26.1797 15.4102C25.75 16.0195 25.3359 16.8906 24.9375 18.0234L20.6602 30.3164H19.9922L15.4805 17.4258L10.9922 30.3164H10.3711L5.90625 17.4258C5.50781 16.2773 5.22656 15.5234 5.0625 15.1641C4.90625 14.8047 4.69922 14.5391 4.44141 14.3672C4.19141 14.1953 3.81641 14.1094 3.31641 14.1094V13.4648H10.2188V14.1094C10.1719 14.1016 10.1289 14.0977 10.0898 14.0977C10.0586 14.0898 10.0078 14.0859 9.9375 14.0859C8.88281 14.0859 8.35547 14.4062 8.35547 15.0469C8.35547 15.3828 8.48047 15.9336 8.73047 16.6992L11.8828 25.7812L15.1172 16.5117C14.9297 15.8867 14.7422 15.4141 14.5547 15.0938C14.3672 14.7656 14.1758 14.5352 13.9805 14.4023C13.7852 14.2695 13.6172 14.1953 13.4766 14.1797C13.3438 14.1562 13.0586 14.1328 12.6211 14.1094V13.4648H19.7227V14.1094C19.1602 14.125 18.7148 14.1875 18.3867 14.2969C18.0664 14.4062 17.9062 14.6406 17.9062 15C17.9062 15.375 18.0898 16.0703 18.457 17.0859L21.5039 25.7812L24 18.5977C24.1562 18.1758 24.2852 17.7656 24.3867 17.3672C24.4961 16.9688 24.5508 16.6055 24.5508 16.2773C24.5508 15.5742 24.375 15.0547 24.0234 14.7188C23.6719 14.375 23.1367 14.1719 22.418 14.1094V13.4648ZM26.1797 14.1094H23.8594C24.2344 14.3438 24.4922 14.6094 24.6328 14.9062C24.7812 15.1953 24.8672 15.5547 24.8906 15.9844C25.0547 15.5859 25.2383 15.2305 25.4414 14.918C25.6445 14.6055 25.8906 14.3359 26.1797 14.1094ZM15.5039 16.3242L20.1562 29.5898C20.3828 29.1211 20.4961 28.7461 20.4961 28.4648C20.4961 28.2852 20.418 27.9727 20.2617 27.5273L16.1953 15.9844C15.9844 15.4062 15.8203 15.0117 15.7031 14.8008C15.5938 14.5898 15.4297 14.4258 15.2109 14.3086C14.9922 14.1836 14.6641 14.1172 14.2266 14.1094C14.6875 14.4844 15.1133 15.2227 15.5039 16.3242ZM5.97656 16.5117L10.5352 29.6602C10.5898 29.543 10.6367 29.4414 10.6758 29.3555C10.7227 29.2617 10.7656 29.1484 10.8047 29.0156C10.8516 28.875 10.875 28.7539 10.875 28.6523C10.875 28.3633 10.8086 28.0508 10.6758 27.7148L6.79688 16.5117C6.52344 15.7227 6.30859 15.1758 6.15234 14.8711C6.00391 14.5664 5.81641 14.3555 5.58984 14.2383C5.37109 14.1211 5.05859 14.0781 4.65234 14.1094C4.93359 14.2969 5.16406 14.5703 5.34375 14.9297C5.52344 15.2812 5.73438 15.8086 5.97656 16.5117ZM34.0781 21.8203V26.9766C34.0781 27.5469 34.1172 27.9922 34.1953 28.3125C34.2812 28.625 34.4336 28.8594 34.6523 29.0156C34.8711 29.1641 35.1836 29.2578 35.5898 29.2969C36.0039 29.3359 36.5664 29.3555 37.2773 29.3555C38.1367 29.3555 38.9062 29.2266 39.5859 28.9688C40.2734 28.7031 40.918 28.3164 41.5195 27.8086C42.1289 27.293 42.793 26.6094 43.5117 25.7578H44.4492L42.9844 30H28.5586V29.3555C29.2539 29.3398 29.7812 29.2812 30.1406 29.1797C30.5078 29.0703 30.7656 28.8945 30.9141 28.6523C31.0703 28.4023 31.1484 28.0508 31.1484 27.5977V16.0078C31.1484 15.4609 31.0781 15.0625 30.9375 14.8125C30.7969 14.5625 30.5586 14.3945 30.2227 14.3086C29.8867 14.2148 29.332 14.1484 28.5586 14.1094V13.4648H42.4102L43.8281 17.2031H42.9844C42.5312 16.6328 41.9766 16.1172 41.3203 15.6562C40.6719 15.1875 39.9414 14.8125 39.1289 14.5312C38.3242 14.25 37.4727 14.1094 36.5742 14.1094C35.8633 14.1094 35.3281 14.1875 34.9688 14.3438C34.6094 14.4922 34.3711 14.7031 34.2539 14.9766C34.1367 15.25 34.0781 15.6094 34.0781 16.0547V21.1641H36.4336C38.4883 21.1641 39.5273 20.2227 39.5508 18.3398H40.3711V24.5508H39.6445C39.5508 23.5977 39.2812 22.9062 38.8359 22.4766C38.3984 22.0391 37.7266 21.8203 36.8203 21.8203H34.0781ZM41.8125 29.3555L42.6211 27.3164C42.1602 27.8164 41.7422 28.1914 41.3672 28.4414C40.9922 28.6836 40.4609 28.9883 39.7734 29.3555H41.8125ZM39.4102 22.582V20.2852C39.1055 20.8086 38.5508 21.1914 37.7461 21.4336C38.1758 21.5508 38.5156 21.6914 38.7656 21.8555C39.0156 22.0195 39.2305 22.2617 39.4102 22.582ZM41.3086 14.1094H39.1875C39.7734 14.3047 40.293 14.5391 40.7461 14.8125C41.1992 15.0859 41.6797 15.4141 42.1875 15.7969L41.3086 14.1094ZM31.5352 16.1016V27.4336C31.5352 28.0039 31.4688 28.4219 31.3359 28.6875C31.2031 28.9531 31.0039 29.1758 30.7383 29.3555C31.3867 29.3477 31.8047 29.1797 31.9922 28.8516C32.1875 28.5156 32.2852 27.9766 32.2852 27.2344V15.8906C32.2852 15.2266 32.1719 14.7891 31.9453 14.5781C31.7188 14.3594 31.3164 14.2422 30.7383 14.2266C31.0273 14.3828 31.2305 14.5938 31.3477 14.8594C31.4727 15.1172 31.5352 15.5312 31.5352 16.1016ZM55.043 30H45.4805V29.3555H45.75C46.4766 29.3555 46.9961 29.2578 47.3086 29.0625C47.6289 28.8594 47.8203 28.5977 47.8828 28.2773C47.9453 27.9492 47.9766 27.4258 47.9766 26.707V16.3242C47.9766 15.7227 47.9258 15.2734 47.8242 14.9766C47.7305 14.6719 47.5117 14.4531 47.168 14.3203C46.8242 14.1797 46.2617 14.1094 45.4805 14.1094V13.4648H54.6562C55.4688 13.4648 56.2148 13.5742 56.8945 13.793C57.5742 14.0039 58.1484 14.3008 58.6172 14.6836C59.0859 15.0586 59.4492 15.5 59.707 16.0078C59.9727 16.5156 60.1055 17.0664 60.1055 17.6602C60.1055 18.3008 59.9414 18.8906 59.6133 19.4297C59.2852 19.9609 58.7852 20.4102 58.1133 20.7773C57.4414 21.1367 56.625 21.3867 55.6641 21.5273C57.2422 21.7383 58.4531 22.2305 59.2969 23.0039C60.1406 23.7695 60.5625 24.7266 60.5625 25.875C60.5625 26.4688 60.4336 27.0195 60.1758 27.5273C59.918 28.0273 59.5469 28.4648 59.0625 28.8398C58.5781 29.207 57.9922 29.4922 57.3047 29.6953C56.6172 29.8984 55.8633 30 55.043 30ZM49.1133 27.4336V15.668C49.1133 15.1367 49.0078 14.7461 48.7969 14.4961C48.5859 14.2383 48.1953 14.1094 47.625 14.1094H47.3789C47.7539 14.2188 48.0117 14.4062 48.1523 14.6719C48.293 14.9297 48.3633 15.3516 48.3633 15.9375V27.5039C48.3633 28.0977 48.2852 28.5195 48.1289 28.7695C47.9805 29.0195 47.7305 29.2148 47.3789 29.3555H47.7188C48.3281 29.3555 48.7109 29.1758 48.8672 28.8164C49.0312 28.4492 49.1133 27.9883 49.1133 27.4336ZM50.9062 21.1641H53.0977C54.1523 21.1641 54.9258 21.0391 55.418 20.7891C55.8711 20.5547 56.2344 20.1602 56.5078 19.6055C56.7891 19.043 56.9297 18.4102 56.9297 17.707C56.9297 17.1445 56.8398 16.6211 56.6602 16.1367C56.4883 15.6445 56.2422 15.2422 55.9219 14.9297C55.5859 14.5781 55.2148 14.3555 54.8086 14.2617C54.4102 14.1602 53.8711 14.1094 53.1914 14.1094C52.3008 14.1094 51.6953 14.2461 51.375 14.5195C51.0625 14.793 50.9062 15.2656 50.9062 15.9375V21.1641ZM50.9062 21.8203V27.5273C50.9062 27.9258 50.9531 28.2422 51.0469 28.4766C51.1406 28.7031 51.2969 28.8867 51.5156 29.0273C51.7422 29.1602 52.0195 29.25 52.3477 29.2969C52.6758 29.3359 53.125 29.3555 53.6953 29.3555C54.5 29.3555 55.1641 29.2148 55.6875 28.9336C56.2188 28.6445 56.6133 28.2305 56.8711 27.6914C57.1367 27.1445 57.2695 26.4805 57.2695 25.6992C57.2695 24.9102 57.1211 24.2266 56.8242 23.6484C56.5273 23.0625 56.1016 22.6133 55.5469 22.3008C55 21.9805 54.3438 21.8203 53.5781 21.8203H50.9062ZM55.2539 21.8438C56.0352 22.1406 56.6289 22.6016 57.0352 23.2266C57.4492 23.8516 57.6562 24.6758 57.6562 25.6992C57.6562 27.6523 56.8711 28.9023 55.3008 29.4492C56.3086 29.332 57.0703 28.9414 57.5859 28.2773C58.1094 27.6055 58.3711 26.6914 58.3711 25.5352C58.3711 24.4648 58.0938 23.6016 57.5391 22.9453C56.9922 22.2812 56.2305 21.9141 55.2539 21.8438ZM55.3945 21.1641C57.1758 20.7031 58.0664 19.5273 58.0664 17.6367C58.0664 17.0195 57.9648 16.457 57.7617 15.9492C57.5586 15.4336 57.25 15.0117 56.8359 14.6836C56.4297 14.3555 55.9258 14.1641 55.3242 14.1094C55.9648 14.375 56.457 14.8281 56.8008 15.4688C57.1445 16.1016 57.3164 16.8672 57.3164 17.7656C57.3164 19.4062 56.6758 20.5391 55.3945 21.1641ZM78.0352 30H68.7422V29.3555C69.3984 29.332 69.8906 29.2734 70.2188 29.1797C70.5469 29.0781 70.7773 28.8945 70.9102 28.6289C71.0508 28.3633 71.1211 27.9727 71.1211 27.457V15.668C71.1211 15.0898 70.9336 14.6992 70.5586 14.4961C70.1836 14.293 69.5781 14.1641 68.7422 14.1094V13.4648H78.4219C79.6797 13.4648 80.8359 13.6719 81.8906 14.0859C82.9531 14.5 83.8633 15.0859 84.6211 15.8438C85.3867 16.5938 85.9766 17.4844 86.3906 18.5156C86.8047 19.5469 87.0117 20.6562 87.0117 21.8438C87.0117 23.0078 86.7969 24.0898 86.3672 25.0898C85.9453 26.082 85.3359 26.9453 84.5391 27.6797C83.7422 28.4141 82.7852 28.9844 81.668 29.3906C80.5586 29.7969 79.3477 30 78.0352 30ZM72.2812 27.5273V16.6992C72.2812 15.7695 72.1953 15.1172 72.0234 14.7422C71.8516 14.3594 71.4062 14.1641 70.6875 14.1562C71.0234 14.3281 71.2422 14.543 71.3438 14.8008C71.4531 15.0508 71.5078 15.4375 71.5078 15.9609V27.2344C71.5078 27.7188 71.4805 28.0977 71.4258 28.3711C71.3711 28.6445 71.2891 28.8516 71.1797 28.9922C71.0703 29.1328 70.9062 29.2539 70.6875 29.3555C71.2812 29.3555 71.6953 29.2148 71.9297 28.9336C72.1641 28.6445 72.2812 28.1758 72.2812 27.5273ZM74.0742 17.4961V26.9531C74.0742 27.6328 74.1211 28.1289 74.2148 28.4414C74.3086 28.7461 74.5312 28.9766 74.8828 29.1328C75.2344 29.2812 75.8047 29.3555 76.5938 29.3555C77.4453 29.3555 78.207 29.2695 78.8789 29.0977C79.5508 28.918 80.1914 28.6094 80.8008 28.1719C81.5195 27.6562 82.082 27.1016 82.4883 26.5078C82.8945 25.9062 83.1875 25.2266 83.3672 24.4688C83.5547 23.7031 83.6484 22.8516 83.6484 21.9141C83.6484 19.125 82.832 17.0352 81.1992 15.6445C80.5508 15.0898 79.832 14.6953 79.043 14.4609C78.2539 14.2266 77.3242 14.1094 76.2539 14.1094C75.5195 14.1094 75 14.2188 74.6953 14.4375C74.3984 14.6484 74.2188 14.957 74.1562 15.3633C74.1016 15.7617 74.0742 16.4727 74.0742 17.4961ZM79.5469 29.3555C80.5469 29.2539 81.4453 28.9102 82.2422 28.3242C83.0391 27.7383 83.668 26.9062 84.1289 25.8281C84.5977 24.75 84.832 23.4609 84.832 21.9609C84.832 20.8828 84.7188 19.8984 84.4922 19.0078C84.2734 18.1172 83.9492 17.3398 83.5195 16.6758C83.0898 16.0039 82.5664 15.4688 81.9492 15.0703C81.5898 14.8281 81.2148 14.6445 80.8242 14.5195C80.4336 14.3945 80.0078 14.2891 79.5469 14.2031C82.5391 15.3828 84.0352 17.9922 84.0352 22.0312C84.0352 23.2422 83.875 24.3164 83.5547 25.2539C83.2422 26.1914 82.75 27.0039 82.0781 27.6914C81.4062 28.3711 80.5625 28.9258 79.5469 29.3555ZM94.1016 21.8203V26.9766C94.1016 27.5469 94.1406 27.9922 94.2188 28.3125C94.3047 28.625 94.457 28.8594 94.6758 29.0156C94.8945 29.1641 95.207 29.2578 95.6133 29.2969C96.0273 29.3359 96.5898 29.3555 97.3008 29.3555C98.1602 29.3555 98.9297 29.2266 99.6094 28.9688C100.297 28.7031 100.941 28.3164 101.543 27.8086C102.152 27.293 102.816 26.6094 103.535 25.7578H104.473L103.008 30H88.582V29.3555C89.2773 29.3398 89.8047 29.2812 90.1641 29.1797C90.5312 29.0703 90.7891 28.8945 90.9375 28.6523C91.0938 28.4023 91.1719 28.0508 91.1719 27.5977V16.0078C91.1719 15.4609 91.1016 15.0625 90.9609 14.8125C90.8203 14.5625 90.582 14.3945 90.2461 14.3086C89.9102 14.2148 89.3555 14.1484 88.582 14.1094V13.4648H102.434L103.852 17.2031H103.008C102.555 16.6328 102 16.1172 101.344 15.6562C100.695 15.1875 99.9648 14.8125 99.1523 14.5312C98.3477 14.25 97.4961 14.1094 96.5977 14.1094C95.8867 14.1094 95.3516 14.1875 94.9922 14.3438C94.6328 14.4922 94.3945 14.7031 94.2773 14.9766C94.1602 15.25 94.1016 15.6094 94.1016 16.0547V21.1641H96.457C98.5117 21.1641 99.5508 20.2227 99.5742 18.3398H100.395V24.5508H99.668C99.5742 23.5977 99.3047 22.9062 98.8594 22.4766C98.4219 22.0391 97.75 21.8203 96.8438 21.8203H94.1016ZM101.836 29.3555L102.645 27.3164C102.184 27.8164 101.766 28.1914 101.391 28.4414C101.016 28.6836 100.484 28.9883 99.7969 29.3555H101.836ZM99.4336 22.582V20.2852C99.1289 20.8086 98.5742 21.1914 97.7695 21.4336C98.1992 21.5508 98.5391 21.6914 98.7891 21.8555C99.0391 22.0195 99.2539 22.2617 99.4336 22.582ZM101.332 14.1094H99.2109C99.7969 14.3047 100.316 14.5391 100.77 14.8125C101.223 15.0859 101.703 15.4141 102.211 15.7969L101.332 14.1094ZM91.5586 16.1016V27.4336C91.5586 28.0039 91.4922 28.4219 91.3594 28.6875C91.2266 28.9531 91.0273 29.1758 90.7617 29.3555C91.4102 29.3477 91.8281 29.1797 92.0156 28.8516C92.2109 28.5156 92.3086 27.9766 92.3086 27.2344V15.8906C92.3086 15.2266 92.1953 14.7891 91.9688 14.5781C91.7422 14.3594 91.3398 14.2422 90.7617 14.2266C91.0508 14.3828 91.2539 14.5938 91.3711 14.8594C91.4961 15.1172 91.5586 15.5312 91.5586 16.1016ZM106.324 24.0469H107.098C107.527 25.2812 108.043 26.3203 108.645 27.1641C109.254 28 109.914 28.6211 110.625 29.0273C111.344 29.4336 112.094 29.6367 112.875 29.6367C113.852 29.6367 114.688 29.332 115.383 28.7227C116.078 28.1133 116.426 27.332 116.426 26.3789C116.426 25.4883 116.195 24.7969 115.734 24.3047C115.273 23.8047 114.723 23.457 114.082 23.2617C113.441 23.0586 112.598 22.8711 111.551 22.6992C110.504 22.5273 109.762 22.3672 109.324 22.2188C108.645 21.9844 108.066 21.6641 107.59 21.2578C107.113 20.8438 106.75 20.3516 106.5 19.7812C106.258 19.2031 106.137 18.5859 106.137 17.9297C106.137 17.3047 106.246 16.7031 106.465 16.125C106.684 15.5469 106.992 15.0352 107.391 14.5898C107.789 14.1445 108.273 13.793 108.844 13.5352C109.422 13.2773 110.062 13.1484 110.766 13.1484C111.273 13.1484 111.895 13.2227 112.629 13.3711C113.371 13.5117 113.91 13.582 114.246 13.582C114.668 13.582 115.066 13.4883 115.441 13.3008H116.332L116.836 18.1172H116.016C115.25 16.6797 114.445 15.5859 113.602 14.8359C112.766 14.0781 111.781 13.6992 110.648 13.6992C110.086 13.6992 109.562 13.832 109.078 14.0977C108.594 14.3555 108.203 14.7148 107.906 15.1758C107.617 15.6367 107.473 16.1445 107.473 16.6992C107.473 17.4805 107.738 18.0781 108.27 18.4922C108.801 18.9062 109.586 19.2188 110.625 19.4297C111.672 19.6406 112.605 19.8203 113.426 19.9688C114.254 20.1172 114.91 20.3086 115.395 20.543C116.285 20.9805 116.977 21.5859 117.469 22.3594C117.961 23.1328 118.207 24.0078 118.207 24.9844C118.207 25.9219 117.98 26.7969 117.527 27.6094C117.074 28.4219 116.438 29.0742 115.617 29.5664C114.797 30.0508 113.883 30.293 112.875 30.293C112.305 30.293 111.875 30.25 111.586 30.1641C111.297 30.0781 110.801 29.9102 110.098 29.6602C109.395 29.4102 108.855 29.2852 108.48 29.2852C107.855 29.2852 107.359 29.5234 106.992 30H106.324V24.0469ZM115.547 16.4648L115.16 14.2266C114.902 14.3125 114.645 14.3555 114.387 14.3555C114.105 14.3555 113.801 14.3125 113.473 14.2266C113.785 14.4297 114.059 14.6562 114.293 14.9062C114.527 15.1562 114.773 15.457 115.031 15.8086C115.289 16.1602 115.461 16.3789 115.547 16.4648ZM106.711 26.2266V29.3555C106.938 29.0586 107.145 28.8672 107.332 28.7812C107.527 28.6953 107.824 28.6602 108.223 28.6758C107.965 28.3711 107.777 28.1484 107.66 28.0078C107.551 27.8594 107.41 27.6445 107.238 27.3633C107.074 27.0742 106.898 26.6953 106.711 26.2266ZM106.711 16.5586C106.578 17.1523 106.512 17.6328 106.512 18C106.512 18.4141 106.582 18.832 106.723 19.2539C106.863 19.668 107.07 20.0625 107.344 20.4375C107.617 20.8047 107.926 21.1055 108.27 21.3398C108.73 21.6523 109.238 21.875 109.793 22.0078C110.348 22.1328 111.156 22.2852 112.219 22.4648C113.289 22.6367 114.027 22.8047 114.434 22.9688C115.184 23.2422 115.766 23.6602 116.18 24.2227C116.602 24.7852 116.812 25.4453 116.812 26.2031C116.812 26.7656 116.652 27.3594 116.332 27.9844C116.973 27.3203 117.293 26.543 117.293 25.6523C117.293 24.7305 117.055 24.0078 116.578 23.4844C116.109 22.9531 115.523 22.5625 114.82 22.3125C114.125 22.0547 113.172 21.8203 111.961 21.6094C110.75 21.3906 110.129 21.2773 110.098 21.2695C108.988 20.9805 108.145 20.4805 107.566 19.7695C106.996 19.0586 106.711 18.2383 106.711 17.3086C106.711 17.1367 106.707 16.9922 106.699 16.875C106.699 16.7578 106.703 16.6523 106.711 16.5586ZM120.281 13.4648H128.086V14.1094C127.352 14.125 126.781 14.2227 126.375 14.4023C125.977 14.5742 125.762 14.9258 125.73 15.457C125.715 15.7852 125.699 16.0469 125.684 16.2422C125.668 16.4297 125.66 16.5117 125.66 16.4883V27.293C125.66 27.7539 125.707 28.1211 125.801 28.3945C125.902 28.668 126.043 28.8633 126.223 28.9805C126.402 29.0977 126.609 29.1797 126.844 29.2266C127.078 29.2656 127.492 29.3086 128.086 29.3555V30H120.281V29.3555C120.977 29.3477 121.5 29.2773 121.852 29.1445C122.211 29.0039 122.441 28.7852 122.543 28.4883C122.652 28.1836 122.707 27.7031 122.707 27.0469V16.582C122.707 15.957 122.676 15.4961 122.613 15.1992C122.559 14.8945 122.449 14.6758 122.285 14.543C122.121 14.4102 121.898 14.3203 121.617 14.2734C121.344 14.2188 120.898 14.1641 120.281 14.1094V13.4648ZM123.094 16.2422V27.9141C123.094 28.3125 123.023 28.6055 122.883 28.793C122.742 28.9805 122.5 29.168 122.156 29.3555C122.664 29.3398 123.074 29.2578 123.387 29.1094C123.699 28.9531 123.855 28.6172 123.855 28.1016V15.668C123.855 15.1367 123.746 14.7383 123.527 14.4727C123.309 14.207 122.875 14.0859 122.227 14.1094C122.82 14.4219 123.117 15.0156 123.117 15.8906C123.117 15.9531 123.113 16.0117 123.105 16.0664C123.105 16.1211 123.102 16.1797 123.094 16.2422ZM145.195 13.2422L145.395 18.4102H144.762C144.402 17.6758 143.996 17.0195 143.543 16.4414C143.09 15.8633 142.621 15.3906 142.137 15.0234C141.652 14.6484 141.145 14.3711 140.613 14.1914C140.082 14.0117 139.531 13.9219 138.961 13.9219C137.883 13.9219 136.922 14.2539 136.078 14.918C135.234 15.582 134.578 16.5039 134.109 17.6836C133.648 18.8633 133.418 20.2148 133.418 21.7383C133.418 23.2539 133.672 24.6055 134.18 25.793C134.695 26.9805 135.387 27.9023 136.254 28.5586C137.129 29.2148 138.078 29.543 139.102 29.543C139.703 29.543 140.262 29.4258 140.777 29.1914C141.301 28.957 141.695 28.6523 141.961 28.2773C142.172 27.9883 142.309 27.6758 142.371 27.3398C142.434 27.0039 142.465 26.5859 142.465 26.0859C142.465 25.2969 142.422 24.7461 142.336 24.4336C142.258 24.1133 142.062 23.8906 141.75 23.7656C141.438 23.6328 140.898 23.5352 140.133 23.4727V22.8047H147.738V23.4727C146.965 23.5352 146.426 23.6289 146.121 23.7539C145.824 23.8711 145.625 24.0898 145.523 24.4102C145.422 24.7227 145.371 25.2578 145.371 26.0156V28.6289C144.723 28.9648 144.023 29.2617 143.273 29.5195C142.531 29.7695 141.777 29.9648 141.012 30.1055C140.254 30.2461 139.504 30.3164 138.762 30.3164C137.395 30.3164 136.16 30.0977 135.059 29.6602C133.957 29.2227 133.031 28.6094 132.281 27.8203C131.531 27.0312 130.965 26.1211 130.582 25.0898C130.199 24.0586 130.008 22.9766 130.008 21.8438C130.008 20.7344 130.195 19.6523 130.57 18.5977C130.953 17.543 131.5 16.6094 132.211 15.7969C132.922 14.9766 133.777 14.332 134.777 13.8633C135.777 13.3867 136.875 13.1484 138.07 13.1484C138.875 13.1484 139.801 13.2617 140.848 13.4883C141.902 13.7148 142.562 13.8281 142.828 13.8281C143.555 13.8281 144.059 13.6328 144.34 13.2422H145.195ZM144.07 16.3945L143.906 14.2617C143.555 14.4023 143.266 14.4727 143.039 14.4727C142.867 14.4727 142.711 14.4648 142.57 14.4492C142.43 14.4258 142.273 14.3945 142.102 14.3555C141.93 14.3086 141.809 14.2773 141.738 14.2617C142.535 14.7461 143.312 15.457 144.07 16.3945ZM142.852 25.2422V26.7891C142.852 27.2656 142.727 27.7383 142.477 28.207C142.227 28.668 141.82 29.0508 141.258 29.3555C141.875 29.2227 142.352 29.0352 142.688 28.793C143.031 28.543 143.273 28.2227 143.414 27.832C143.562 27.4414 143.637 26.9336 143.637 26.3086C143.637 25.5352 143.605 24.9805 143.543 24.6445C143.488 24.3008 143.34 24.0352 143.098 23.8477C142.863 23.6523 142.484 23.5273 141.961 23.4727C142.25 23.6836 142.469 23.9141 142.617 24.1641C142.773 24.4062 142.852 24.7656 142.852 25.2422ZM137.109 29.9062C136.336 29.5625 135.68 29.2266 135.141 28.8984C134.602 28.5625 134.051 28.0977 133.488 27.5039C132.746 26.707 132.172 25.8047 131.766 24.7969C131.359 23.7812 131.156 22.7734 131.156 21.7734C131.156 20.6094 131.414 19.4375 131.93 18.2578C132.453 17.0781 133.164 16.0625 134.062 15.2109C134.508 14.7969 134.926 14.4805 135.316 14.2617C135.715 14.0352 136.184 13.8008 136.723 13.5586C136.16 13.668 135.715 13.7891 135.387 13.9219C134.707 14.1875 134.066 14.5781 133.465 15.0938C132.871 15.6016 132.336 16.2227 131.859 16.957C131.383 17.6836 131.02 18.457 130.77 19.2773C130.52 20.0898 130.395 20.9297 130.395 21.7969C130.395 22.8906 130.598 23.9727 131.004 25.043C131.418 26.1055 131.988 27.0039 132.715 27.7383C133.16 28.1758 133.613 28.5312 134.074 28.8047C134.535 29.0703 134.984 29.2812 135.422 29.4375C135.867 29.5859 136.43 29.7422 137.109 29.9062ZM160.629 14.1094V13.4648H166.898V14.1094C166.375 14.125 165.914 14.2422 165.516 14.4609C165.125 14.6797 164.816 15 164.59 15.4219C164.363 15.8359 164.25 16.3359 164.25 16.9219L164.473 30.3633H163.746L151.77 16.3711L151.945 25.7812C151.961 26.3672 152.008 26.8633 152.086 27.2695C152.164 27.668 152.305 28.0156 152.508 28.3125C152.711 28.6094 153 28.8438 153.375 29.0156C153.758 29.1875 154.25 29.3008 154.852 29.3555V30H148.629V29.3555C149.441 29.293 150.043 29.0742 150.434 28.6992C150.832 28.3242 151.078 27.8594 151.172 27.3047C151.266 26.7422 151.297 26.0391 151.266 25.1953L151.102 15.5977C150.656 15.1133 150.223 14.7461 149.801 14.4961C149.379 14.2383 148.941 14.1094 148.488 14.1094H148.348V13.4648H153.188L163.746 25.7812L163.582 17.543C163.582 16.9102 163.516 16.375 163.383 15.9375C163.258 15.4922 163.043 15.1328 162.738 14.8594C162.52 14.6406 162.203 14.4609 161.789 14.3203C161.383 14.1719 160.996 14.1016 160.629 14.1094ZM164.73 14.1094H162.164C162.555 14.2422 162.871 14.4258 163.113 14.6602C163.363 14.8945 163.574 15.2148 163.746 15.6211C163.926 14.9258 164.254 14.4219 164.73 14.1094ZM162.891 27.5273L152.332 15.2109C152.113 14.9297 151.852 14.6758 151.547 14.4492C151.25 14.2227 150.828 14.1094 150.281 14.1094H149.754C150.191 14.2656 150.531 14.457 150.773 14.6836C151.016 14.9023 151.355 15.2734 151.793 15.7969L163.828 29.8125C163.82 29.5859 163.809 29.3672 163.793 29.1562C163.785 28.9375 163.762 28.7773 163.723 28.6758C163.684 28.5664 163.609 28.4336 163.5 28.2773C163.391 28.1211 163.188 27.8711 162.891 27.5273ZM150.07 29.3555H152.543C152.199 29.0898 151.953 28.8438 151.805 28.6172C151.664 28.3906 151.543 28.0742 151.441 27.668C151.34 28.0352 151.184 28.3555 150.973 28.6289C150.762 28.8945 150.461 29.1367 150.07 29.3555ZM173.367 21.8203V26.9766C173.367 27.5469 173.406 27.9922 173.484 28.3125C173.57 28.625 173.723 28.8594 173.941 29.0156C174.16 29.1641 174.473 29.2578 174.879 29.2969C175.293 29.3359 175.855 29.3555 176.566 29.3555C177.426 29.3555 178.195 29.2266 178.875 28.9688C179.562 28.7031 180.207 28.3164 180.809 27.8086C181.418 27.293 182.082 26.6094 182.801 25.7578H183.738L182.273 30H167.848V29.3555C168.543 29.3398 169.07 29.2812 169.43 29.1797C169.797 29.0703 170.055 28.8945 170.203 28.6523C170.359 28.4023 170.438 28.0508 170.438 27.5977V16.0078C170.438 15.4609 170.367 15.0625 170.227 14.8125C170.086 14.5625 169.848 14.3945 169.512 14.3086C169.176 14.2148 168.621 14.1484 167.848 14.1094V13.4648H181.699L183.117 17.2031H182.273C181.82 16.6328 181.266 16.1172 180.609 15.6562C179.961 15.1875 179.23 14.8125 178.418 14.5312C177.613 14.25 176.762 14.1094 175.863 14.1094C175.152 14.1094 174.617 14.1875 174.258 14.3438C173.898 14.4922 173.66 14.7031 173.543 14.9766C173.426 15.25 173.367 15.6094 173.367 16.0547V21.1641H175.723C177.777 21.1641 178.816 20.2227 178.84 18.3398H179.66V24.5508H178.934C178.84 23.5977 178.57 22.9062 178.125 22.4766C177.688 22.0391 177.016 21.8203 176.109 21.8203H173.367ZM181.102 29.3555L181.91 27.3164C181.449 27.8164 181.031 28.1914 180.656 28.4414C180.281 28.6836 179.75 28.9883 179.062 29.3555H181.102ZM178.699 22.582V20.2852C178.395 20.8086 177.84 21.1914 177.035 21.4336C177.465 21.5508 177.805 21.6914 178.055 21.8555C178.305 22.0195 178.52 22.2617 178.699 22.582ZM180.598 14.1094H178.477C179.062 14.3047 179.582 14.5391 180.035 14.8125C180.488 15.0859 180.969 15.4141 181.477 15.7969L180.598 14.1094ZM170.824 16.1016V27.4336C170.824 28.0039 170.758 28.4219 170.625 28.6875C170.492 28.9531 170.293 29.1758 170.027 29.3555C170.676 29.3477 171.094 29.1797 171.281 28.8516C171.477 28.5156 171.574 27.9766 171.574 27.2344V15.8906C171.574 15.2266 171.461 14.7891 171.234 14.5781C171.008 14.3594 170.605 14.2422 170.027 14.2266C170.316 14.3828 170.52 14.5938 170.637 14.8594C170.762 15.1172 170.824 15.5312 170.824 16.1016ZM192.844 30H184.723V29.3555C185.48 29.3398 186.043 29.2812 186.41 29.1797C186.777 29.0703 187.027 28.8789 187.16 28.6055C187.301 28.332 187.371 27.9023 187.371 27.3164V16.3711C187.371 15.7461 187.312 15.2812 187.195 14.9766C187.078 14.6719 186.836 14.457 186.469 14.332C186.109 14.207 185.527 14.1328 184.723 14.1094V13.4648H193.969C195.133 13.4648 196.148 13.668 197.016 14.0742C197.891 14.4727 198.547 15.0078 198.984 15.6797C199.43 16.3438 199.652 17.0625 199.652 17.8359C199.652 18.3438 199.551 18.8398 199.348 19.3242C199.145 19.8008 198.852 20.2344 198.469 20.625C198.086 21.0156 197.621 21.3516 197.074 21.6328C196.535 21.9062 195.906 22.1016 195.188 22.2188C195.727 22.7578 196.391 23.5195 197.18 24.5039L198.34 25.875C198.402 25.9453 198.48 26.0352 198.574 26.1445C198.668 26.2461 198.789 26.3789 198.938 26.543C199.312 26.9961 199.629 27.3711 199.887 27.668C200.145 27.957 200.398 28.2188 200.648 28.4531C200.906 28.6875 201.156 28.8789 201.398 29.0273C201.641 29.168 201.898 29.2773 202.172 29.3555V30H199.969C199.469 30 198.996 29.8906 198.551 29.6719C198.105 29.4453 197.676 29.1289 197.262 28.7227C196.855 28.3164 196.391 27.7812 195.867 27.1172L194.227 25.0312C193.469 24.0469 192.902 23.3672 192.527 22.9922C192.16 22.6094 191.84 22.418 191.566 22.418H190.266V27.3867C190.266 27.8789 190.328 28.2656 190.453 28.5469C190.578 28.8281 190.852 29.0312 191.273 29.1562C191.5 29.2188 191.777 29.2695 192.105 29.3086C192.434 29.3477 192.68 29.3633 192.844 29.3555V30ZM187.746 16.2773V27.8438C187.746 28.5781 187.477 29.082 186.938 29.3555C187.961 29.332 188.473 28.9375 188.473 28.1719V16.3477C188.473 15.7461 188.438 15.293 188.367 14.9883C188.305 14.6758 188.152 14.4453 187.91 14.2969C187.676 14.1484 187.312 14.0859 186.82 14.1094C187.227 14.2891 187.48 14.5273 187.582 14.8242C187.691 15.1133 187.746 15.5977 187.746 16.2773ZM190.266 16.4883V21.7734H192.164C192.805 21.7734 193.438 21.6719 194.062 21.4688C194.688 21.2578 195.16 20.9961 195.48 20.6836C196.121 20.082 196.441 19.1641 196.441 17.9297C196.441 16.4688 195.945 15.3945 194.953 14.707C194.602 14.4648 194.234 14.3047 193.852 14.2266C193.469 14.1484 192.98 14.1094 192.387 14.1094C191.785 14.1094 191.328 14.1914 191.016 14.3555C190.711 14.5117 190.508 14.7539 190.406 15.082C190.312 15.4023 190.266 15.8711 190.266 16.4883ZM193.324 22.418H192.363C192.645 22.6289 192.969 22.9453 193.336 23.3672C193.711 23.7891 194.18 24.3594 194.742 25.0781C195.305 25.7969 195.871 26.5273 196.441 27.2695C196.965 27.9336 197.449 28.4453 197.895 28.8047C198.34 29.1562 198.734 29.3828 199.078 29.4844C199.422 29.5859 199.789 29.6445 200.18 29.6602C199.695 29.4258 199.23 29.1055 198.785 28.6992C198.34 28.2852 197.859 27.7656 197.344 27.1406C196.836 26.5078 196.309 25.8438 195.762 25.1484C195.223 24.4531 194.664 23.7969 194.086 23.1797C194.008 23.0703 193.91 22.9492 193.793 22.8164C193.684 22.6758 193.527 22.543 193.324 22.418ZM194.355 21.7148C195.402 21.582 196.207 21.1914 196.77 20.543C197.332 19.8945 197.613 19.0156 197.613 17.9062C197.613 16.8281 197.363 15.9727 196.863 15.3398C196.363 14.6992 195.652 14.3125 194.73 14.1797C195.434 14.5391 195.957 15.0234 196.301 15.6328C196.652 16.2344 196.828 17.0391 196.828 18.0469C196.828 19.1094 196.621 19.9062 196.207 20.4375C195.801 20.9688 195.184 21.3945 194.355 21.7148Z" fill="#1D065B"/>
<path d="M57 150L7.63655 37.5L106.363 37.5L57 150Z" fill="#FD01E4"/>
<path d="M155 150L105.637 37.5H204.363L155 150Z" fill="#FD01E4"/>
</svg>
